<svg xmlns="http://www.w3.org/2000/svg" viewBox="0 0 243.61 472.12"><defs><style>.cls-1{fill:#195aaa;}.cls-2{fill:#fff;}</style></defs><g id="Layer_2" data-name="Layer 2"><g id="Layer_1-2" data-name="Layer 1"><path class="cls-1" d="M223.87,0H19.74A19.74,19.74,0,0,0,0,19.74v68.2q40.16,32.88,84,47.88A224.27,224.27,0,0,0,156.31,148c26.47,0,56-4.86,87.3-18V19.74A19.74,19.74,0,0,0,223.87,0Z"/><path class="cls-2" d="M84,135.82Q40.21,120.88,0,87.94V452.37a19.74,19.74,0,0,0,19.74,19.75H223.87a19.74,19.74,0,0,0,19.74-19.75V130c-31.33,13.14-60.83,18-87.3,18A224.27,224.27,0,0,1,84,135.82Z"/><path class="cls-1" d="M223.87,0H19.74A19.74,19.74,0,0,0,0,19.74V78.28A19.74,19.74,0,0,1,19.74,58.54H223.87a19.74,19.74,0,0,1,19.74,19.74V19.74A19.74,19.74,0,0,0,223.87,0Z"/></g></g></svg>